<svg width="24" height="24" viewBox="0 0 24 24" fill="none" xmlns="http://www.w3.org/2000/svg">
<path d="M21.707 20.293L17.1684 15.7543C18.3545 14.2598 19.0001 12.408 19 10.5C19 5.81347 15.187 2 10.5 2C5.81298 2 2.00003 5.81347 2.00003 10.5C2.00003 15.1865 5.81298 19 10.5 19C12.408 19.0001 14.2599 18.3545 15.7542 17.1682L20.293 21.707C20.4809 21.8926 20.7346 21.9963 20.9987 21.9955C21.2628 21.9946 21.5159 21.8893 21.7026 21.7026C21.8894 21.5158 21.9947 21.2628 21.9955 20.9987C21.9963 20.7346 21.8926 20.4809 21.707 20.293ZM4 10.5C4 6.91602 6.91605 3.99997 10.5 3.99997C14.084 3.99997 17 6.91602 17 10.5C17 14.084 14.084 17 10.5 17C6.91605 17 4 14.084 4 10.5Z" fill="#4F4A45"/>
</svg>
